<?xml version="1.0" encoding="utf-8"?>
<!-- Generator: Adobe Illustrator 25.4.1, SVG Export Plug-In . SVG Version: 6.00 Build 0)  -->
<svg version="1.1" id="Lager_1" xmlns="http://www.w3.org/2000/svg" xmlns:xlink="http://www.w3.org/1999/xlink" x="0px" y="0px"
	 viewBox="0 0 96.5 37.1" style="enable-background:new 0 0 96.5 37.1;" xml:space="preserve">
<style type="text/css">
	.st0{stroke:#000000;stroke-width:0.75;stroke-miterlimit:10;}
	.st1{stroke:#000000;stroke-width:0.25;stroke-miterlimit:10;}
	.st2{fill:#444444;}
	.st3{fill:#444444;stroke:#000000;stroke-width:0.25;stroke-miterlimit:10;}
</style>
<g>
	<g>
		<path d="M2.4,14.6c0.5,2,1.9,3.3,4.6,3.3c2.9,0,4.1-1.4,4.1-3.1c0-1.7-0.8-2.8-4.3-3.7C3.3,10.3,1.8,9.2,1.8,7c0-2,1.5-3.9,5-3.9
			c3.5,0,5,2.1,5.2,3.9h-1.3c-0.4-1.7-1.5-2.8-4-2.8c-2.3,0-3.6,1-3.6,2.8c0,1.7,1.1,2.4,4,3.1c4.5,1.1,5.2,2.8,5.2,4.7
			c0,2.3-1.7,4.2-5.4,4.2c-4,0-5.5-2.2-5.8-4.3H2.4z"/>
		<path d="M21.8,3.3h5.7c2.9,0,5,1.6,5,4.3c0,2.8-2,4.4-5.1,4.4H23v6.7h-1.3V3.3z M23,10.9h4.4c2.6,0,3.7-1.3,3.7-3.3
			c0-2.1-1.4-3.2-3.6-3.2H23V10.9z"/>
		<path d="M43.5,13.4l-2,5.3h-1.3l5.9-15.4h1.5l6.2,15.4h-1.4l-2.1-5.3H43.5z M49.8,12.3c-1.8-4.6-2.7-6.8-3-7.8h0
			c-0.4,1.2-1.4,3.9-2.9,7.8H49.8z"/>
		<path d="M74.7,14.6c-0.8,2.4-2.6,4.3-6,4.3c-4.6,0-7.1-3.5-7.1-7.9c0-4.2,2.4-7.9,7.1-7.9c3.5,0,5.5,1.8,6,4.4h-1.2
			c-0.7-2-2.1-3.3-4.9-3.3c-4,0-5.7,3.5-5.7,6.8c0,3.3,1.7,6.8,5.8,6.8c2.6,0,4-1.3,4.8-3.2H74.7z"/>
		<path d="M93.3,11.2h-8.2v6.5h9l-0.2,1.1h-10V3.3h9.9v1.1h-8.6v5.6h8.2V11.2z"/>
	</g>
</g>
<path class="st0" d="M0.5,22c31.7,0,63.3,0,95,0"/>
<g>
	<g>
		<path class="st1" d="M2.4,14.6c0.5,2,1.9,3.3,4.6,3.3c2.9,0,4.1-1.4,4.1-3.1c0-1.7-0.8-2.8-4.3-3.7C3.3,10.3,1.8,9.2,1.8,7
			c0-2,1.5-3.9,5-3.9c3.5,0,5,2.1,5.2,3.9h-1.3c-0.4-1.7-1.5-2.8-4-2.8c-2.3,0-3.6,1-3.6,2.8c0,1.7,1.1,2.4,4,3.1
			c4.5,1.1,5.2,2.8,5.2,4.7c0,2.3-1.7,4.2-5.4,4.2c-4,0-5.5-2.2-5.8-4.3H2.4z"/>
		<path class="st1" d="M21.8,3.3h5.7c2.9,0,5,1.6,5,4.3c0,2.8-2,4.4-5.1,4.4H23v6.7h-1.3V3.3z M23,10.9h4.4c2.6,0,3.7-1.3,3.7-3.3
			c0-2.1-1.4-3.2-3.6-3.2H23V10.9z"/>
		<path class="st1" d="M43.5,13.4l-2,5.3h-1.3l5.9-15.4h1.5l6.2,15.4h-1.4l-2.1-5.3H43.5z M49.8,12.3c-1.8-4.6-2.7-6.8-3-7.8h0
			c-0.4,1.2-1.4,3.9-2.9,7.8H49.8z"/>
		<path class="st1" d="M74.7,14.6c-0.8,2.4-2.6,4.3-6,4.3c-4.6,0-7.1-3.5-7.1-7.9c0-4.2,2.4-7.9,7.1-7.9c3.5,0,5.5,1.8,6,4.4h-1.2
			c-0.7-2-2.1-3.3-4.9-3.3c-4,0-5.7,3.5-5.7,6.8c0,3.3,1.7,6.8,5.8,6.8c2.6,0,4-1.3,4.8-3.2H74.7z"/>
		<path class="st1" d="M93.3,11.2h-8.2v6.5h9l-0.2,1.1h-10V3.3h9.9v1.1h-8.6v5.6h8.2V11.2z"/>
	</g>
</g>
<path class="st0" d="M0.5,22c31.7,0,63.3,0,95,0"/>
<g>
	<g>
		<path class="st2" d="M1.4,33.9v-8.4h1.1c1.5,2,5.1,6.7,5.7,7.6h0c-0.1-1.2-0.1-2.4-0.1-3.8v-3.8h0.8v8.4h-1
			c-1.4-1.9-5-6.8-5.7-7.7h0c0.1,1.1,0.1,2.3,0.1,3.8v3.9H1.4z"/>
		<path class="st2" d="M15.9,25.5v5.1c0,2.2,1.5,2.8,2.8,2.8c1.6,0,2.8-0.6,2.8-2.8v-5.1h0.8v5c0,2.6-1.6,3.4-3.6,3.4
			c-1.9,0-3.6-0.9-3.6-3.3v-5.2H15.9z"/>
		<path class="st2" d="M30.6,26.1h-3.3v-0.6h7.3v0.6h-3.3v7.8h-0.8V26.1z"/>
		<path class="st2" d="M40.4,30v3.9h-0.8v-8.4h3.5c1.9,0,2.9,0.9,2.9,2.2c0,1.1-0.7,1.8-1.8,2c1,0.2,1.7,0.8,1.7,2.2v0.3
			c0,0.6-0.1,1.4,0.1,1.7h-0.8c-0.2-0.4-0.1-1-0.1-1.8V32c0-1.4-0.5-2-2.3-2H40.4z M40.4,29.4h2.3c1.7,0,2.5-0.6,2.5-1.7
			c0-1-0.8-1.6-2.3-1.6h-2.6V29.4z"/>
		<path class="st2" d="M52.7,25.5v8.4H52v-8.4H52.7z"/>
		<path class="st2" d="M61,26.1h-3.3v-0.6h7.3v0.6h-3.3v7.8H61V26.1z"/>
		<path class="st2" d="M70.9,25.5v8.4h-0.7v-8.4H70.9z"/>
		<path class="st2" d="M85.3,29.7c0,2.3-1.4,4.4-4.4,4.4c-2.7,0-4.3-1.9-4.3-4.3c0-2.4,1.5-4.3,4.4-4.3
			C83.7,25.4,85.3,27.2,85.3,29.7z M77.4,29.7c0,1.9,1.2,3.8,3.6,3.8c2.5,0,3.6-1.8,3.6-3.8c0-2-1.2-3.7-3.5-3.7
			C78.5,26,77.4,27.8,77.4,29.7z"/>
		<path class="st2" d="M87.5,33.9v-8.4h1.1c1.5,2,5.1,6.7,5.7,7.6h0c-0.1-1.2-0.1-2.4-0.1-3.8v-3.8H95v8.4h-1
			c-1.4-1.9-5-6.8-5.7-7.7h0c0.1,1.1,0.1,2.3,0.1,3.8v3.9H87.5z"/>
	</g>
</g>
<g>
	<g>
		<path class="st3" d="M1.4,33.9v-8.4h1.1c1.5,2,5.1,6.7,5.7,7.6h0c-0.1-1.2-0.1-2.4-0.1-3.8v-3.8h0.8v8.4h-1
			c-1.4-1.9-5-6.8-5.7-7.7h0c0.1,1.1,0.1,2.3,0.1,3.8v3.9H1.4z"/>
		<path class="st3" d="M15.9,25.5v5.1c0,2.2,1.5,2.8,2.8,2.8c1.6,0,2.8-0.6,2.8-2.8v-5.1h0.8v5c0,2.6-1.6,3.4-3.6,3.4
			c-1.9,0-3.6-0.9-3.6-3.3v-5.2H15.9z"/>
		<path class="st3" d="M30.6,26.1h-3.3v-0.6h7.3v0.6h-3.3v7.8h-0.8V26.1z"/>
		<path class="st3" d="M40.4,30v3.9h-0.8v-8.4h3.5c1.9,0,2.9,0.9,2.9,2.2c0,1.1-0.7,1.8-1.8,2c1,0.2,1.7,0.8,1.7,2.2v0.3
			c0,0.6-0.1,1.4,0.1,1.7h-0.8c-0.2-0.4-0.1-1-0.1-1.8V32c0-1.4-0.5-2-2.3-2H40.4z M40.4,29.4h2.3c1.7,0,2.5-0.6,2.5-1.7
			c0-1-0.8-1.6-2.3-1.6h-2.6V29.4z"/>
		<path class="st3" d="M52.7,25.5v8.4H52v-8.4H52.7z"/>
		<path class="st3" d="M61,26.1h-3.3v-0.6h7.3v0.6h-3.3v7.8H61V26.1z"/>
		<path class="st3" d="M70.9,25.5v8.4h-0.7v-8.4H70.9z"/>
		<path class="st3" d="M85.3,29.7c0,2.3-1.4,4.4-4.4,4.4c-2.7,0-4.3-1.9-4.3-4.3c0-2.4,1.5-4.3,4.4-4.3
			C83.7,25.4,85.3,27.2,85.3,29.7z M77.4,29.7c0,1.9,1.2,3.8,3.6,3.8c2.5,0,3.6-1.8,3.6-3.8c0-2-1.2-3.7-3.5-3.7
			C78.5,26,77.4,27.8,77.4,29.7z"/>
		<path class="st3" d="M87.5,33.9v-8.4h1.1c1.5,2,5.1,6.7,5.7,7.6h0c-0.1-1.2-0.1-2.4-0.1-3.8v-3.8H95v8.4h-1
			c-1.4-1.9-5-6.8-5.7-7.7h0c0.1,1.1,0.1,2.3,0.1,3.8v3.9H87.5z"/>
	</g>
</g>
</svg>
